<svg id="Layer_2" data-name="Layer 2" xmlns="http://www.w3.org/2000/svg" viewBox="0 0 208.32 218.82"><defs><style>.cls-1,.cls-3{fill:none;}.cls-1,.cls-2,.cls-3{stroke:#fff;stroke-miterlimit:10;}.cls-1{stroke-width:4px;}.cls-2{fill:#fff;}</style></defs><path class="cls-1" d="M226.41,324.17a65.6,65.6,0,0,1,15-62.16,105.26,105.26,0,0,0-32.68-23.48" transform="translate(-129.77 -155.18)"/><path class="cls-1" d="M159.68,229.14l-.72,0c0-.13,0-.27.08-.4" transform="translate(-129.77 -155.18)"/><path class="cls-1" d="M179.16,188c.9-1,1.83-2.06,2.78-3.06q.39.51.81,1a23.81,23.81,0,0,0,1.71,1.77q.39.38.81.72l.15.13.5.4a6.8,6.8,0,0,0,.6.46l.43.32c.47.34,1,.65,1.46,1l.49.29a23.12,23.12,0,0,0,2.39,1.19l.53.21c.53.22,1.07.41,1.62.58l.92.27.66.17c.52.12,1,.22,1.58.32l1.11.16.34,0c.37,0,.75.07,1.13.09s.88,0,1.32,0a20.19,20.19,0,0,0,2.21-.11l.49,0a21,21,0,0,0,2.78-.49q.41-.09.81-.21a18.87,18.87,0,0,0,2-.64,15.78,15.78,0,0,0,1.64-.69l.48-.23a14.51,14.51,0,0,0,1.45-.78l.5-.3.65-.41c.21-.14.43-.29.64-.45s.6-.43.89-.66l.57-.46q.58-.48,1.14-1l.48-.47c.17-.17.34-.34.49-.51l.4-.44c.26-.29.51-.59.75-.89s.63-.81.92-1.23c.16-.22.31-.44.45-.67a18,18,0,0,0,.95-1.59c.15-.27.29-.55.43-.83s.35-.73.5-1.1a1,1,0,0,0,.09-.21.47.47,0,0,0,.06-.15,6.52,6.52,0,0,0,.33-.83,22.66,22.66,0,0,0,.72-2.34c.09-.33.17-.66.23-1s.12-.63.17-.94l.06-.4a18.44,18.44,0,0,0,.2-2c0-.13,0-.25,0-.38,0-.34,0-.69,0-1a23.25,23.25,0,0,0-2.16-9.83,89.43,89.43,0,0,1,66.25,165.17,88,88,0,0,1-18.1,7.08,89.82,89.82,0,0,1-39.72,1.57" transform="translate(-129.77 -155.18)"/><path class="cls-1" d="M226.41,324.17a65.6,65.6,0,0,1,15-62.16,105.26,105.26,0,0,0-32.68-23.48" transform="translate(-129.77 -155.18)"/><path class="cls-1" d="M159.68,229.14l-.72,0" transform="translate(-129.77 -155.18)"/><path class="cls-1" d="M208.76,238.53A104.54,104.54,0,0,0,165,229c-1.79,0-3.56.05-5.32.14" transform="translate(-129.77 -155.18)"/><path class="cls-1" d="M226.41,324.17a65.6,65.6,0,0,1,15-62.16A104.73,104.73,0,0,1,270,332.92c0,.36,0,.72,0,1.08a104.57,104.57,0,0,1-5.34,33.12,65.75,65.75,0,0,1-34.39-32.63" transform="translate(-129.77 -155.18)"/><path class="cls-1" d="M322.06,363.34a65.51,65.51,0,1,1,13.09-103.8,89.43,89.43,0,0,1-47.06,66.3A71.73,71.73,0,0,1,322.06,363.34Z" transform="translate(-129.77 -155.18)"/><path class="cls-1" d="M226.41,324.17A71.11,71.11,0,0,1,255.5,318,72,72,0,0,1,269,319.27a70.58,70.58,0,0,1,19.12,6.57,71.73,71.73,0,0,1,34,37.5,65.5,65.5,0,0,1-91.79-28.85" transform="translate(-129.77 -155.18)"/><circle class="cls-1" cx="125.73" cy="40.32" r="9.5"/><ellipse class="cls-2" cx="64.23" cy="45.82" rx="5" ry="1"/><line class="cls-3" x1="3.73" y1="59.32" x2="78.73" y2="59.32"/><path class="cls-1" d="M208.76,238.53v-46a18.87,18.87,0,0,1-2,.64q-.4.12-.81.21a21,21,0,0,1-2.78.49l-.49,0a20.19,20.19,0,0,1-2.21.11c-.44,0-.88,0-1.32,0s-.76-.05-1.13-.09l-.34,0-1.11-.16c-.54-.1-1.06-.2-1.58-.32l-.66-.17-.92-.27c-.55-.17-1.09-.36-1.62-.58l-.53-.21a23.12,23.12,0,0,1-2.39-1.19l-.49-.29c-.5-.3-1-.61-1.46-1l-.43-.32a6.8,6.8,0,0,1-.6-.46l-.5-.4-.15-.13q-.42-.34-.81-.72a23.81,23.81,0,0,1-1.71-1.77L179.16,188l-7.9,4.56-37.5,21.65.55.32L159,228.78l.64.36" transform="translate(-129.77 -155.18)"/></svg>