<svg id="Layer_1" data-name="Layer 1" xmlns="http://www.w3.org/2000/svg" viewBox="0 0 359.18 78.09"><defs><style>.cls-1{fill:#f7f7f2;}.cls-1,.cls-2,.cls-3{stroke:#f7f7f2;}.cls-1,.cls-2,.cls-3,.cls-4{stroke-miterlimit:10;}.cls-2,.cls-3,.cls-4{fill:none;}.cls-2,.cls-4{stroke-width:4px;}.cls-4{stroke:#272727;}</style></defs><path class="cls-1" d="M154.11,234l10.82,58.36L196.59,234h9.55l-37.71,67.91H158.2l-12.11-60.3L144.56,234ZM170,273" transform="translate(-67.23 -228.37)"/><path class="cls-1" d="M186.67,272.26a22.69,22.69,0,0,1,7.77-6.89,20.35,20.35,0,0,1,9.77-2.45,14.82,14.82,0,0,1,8.33,2.17,11.42,11.42,0,0,1,4.55,5.46l1.26-7h6.44L218,301.91h-6.44l1.33-7.14a19.84,19.84,0,0,1-6.65,5.56,19,19,0,0,1-9.1,2.21,15.79,15.79,0,0,1-7.91-1.93,13.22,13.22,0,0,1-5.32-5.49,17.41,17.41,0,0,1-1.89-8.26,22.46,22.46,0,0,1,.42-4.27A25.11,25.11,0,0,1,186.67,272.26Zm28.6,7.25a10.8,10.8,0,0,0-3.05-8.09,10.62,10.62,0,0,0-7.73-3,14.71,14.71,0,0,0-6.83,1.68,15.61,15.61,0,0,0-5.56,4.9,18.18,18.18,0,0,0-3.08,7.56,16.94,16.94,0,0,0-.28,3.22,10.92,10.92,0,0,0,3,8.15,10.45,10.45,0,0,0,7.7,3,14.36,14.36,0,0,0,6.82-1.72,16.11,16.11,0,0,0,5.6-5,18.25,18.25,0,0,0,3.12-7.59A17.41,17.41,0,0,0,215.27,279.51Z" transform="translate(-67.23 -228.37)"/><path class="cls-1" d="M255.92,266q3.57,3.2,3.57,9.28a20.78,20.78,0,0,1-.35,4l-4,22.61h-6.3l3.85-21.7a17,17,0,0,0,.28-3.08q0-4.28-2.35-6.51a9,9,0,0,0-6.54-2.24,12.45,12.45,0,0,0-8.58,3.15q-3.52,3.15-4.58,9.17v-.14l-3.78,21.35h-6.37l6.79-38.36h6.37l-1,5.53a15.57,15.57,0,0,1,5.95-4.62,17.89,17.89,0,0,1,7.49-1.61Q252.34,262.85,255.92,266Z" transform="translate(-67.23 -228.37)"/><path class="cls-1" d="M306.45,249q7,6.09,7,16.92a38.79,38.79,0,0,1-7.15,22.3,32.22,32.22,0,0,1-12.61,10.16,41.12,41.12,0,0,1-17.31,3.51H258l10.49-59h18.37Q299.46,242.93,306.45,249Z" transform="translate(-67.23 -228.37)"/><path class="cls-1" d="M350.88,263.55l-6.79,38.36h-6.37l1-5.6a15.35,15.35,0,0,1-5.88,4.55,17.93,17.93,0,0,1-7.42,1.61q-6,0-9.63-3.26t-3.6-9.34a25.6,25.6,0,0,1,.35-3.85l4-22.47h6.3L319,285.18a16.11,16.11,0,0,0-.28,3.08c0,2.85.78,5,2.34,6.47a9.19,9.19,0,0,0,6.55,2.21,12.43,12.43,0,0,0,8.57-3.15q3.54-3.15,4.52-9.17v.21l3.78-21.28Z" transform="translate(-67.23 -228.37)"/><path class="cls-1" d="M355.08,272.26a22.23,22.23,0,0,1,7.88-6.89,21.5,21.5,0,0,1,10.15-2.45q7.06,0,11,3.43a13.19,13.19,0,0,1,4.38,9.52h-6.86a7.85,7.85,0,0,0-2.84-5.53,10.21,10.21,0,0,0-6.68-2,13.5,13.5,0,0,0-9.49,3.74q-4,3.75-5.21,10.61a25.6,25.6,0,0,0-.35,3.85c0,3.4.91,6,2.73,7.87a9.74,9.74,0,0,0,7.28,2.77,13.49,13.49,0,0,0,7.31-2,12.76,12.76,0,0,0,4.8-5.6h6.86a21.13,21.13,0,0,1-19.95,13q-7.22,0-11.45-4.13t-4.23-11.27a27,27,0,0,1,4.65-14.88Z" transform="translate(-67.23 -228.37)"/><path class="cls-1" d="M403.75,282.73l14.71,19.18h-8.68l-12-16.87-3,16.87h-6.37l9.17-51.8h6.37l-5.4,30.38,17.79-16.94h8.82Z" transform="translate(-67.23 -228.37)"/><path class="cls-2" d="M103.17,288a22.63,22.63,0,0,1,5.18-21.44,36.24,36.24,0,0,0-11.28-8.1" transform="translate(-67.23 -228.37)"/><path class="cls-2" d="M80.05,255.06h-.14a.32.32,0,0,1,0-.14" transform="translate(-67.23 -228.37)"/><path class="cls-2" d="M86.87,241l1-1,.28.34c.19.21.39.42.59.61l.28.25,0,0,.18.14a1.56,1.56,0,0,0,.2.16l.15.11c.16.12.35.23.51.35l.16.1a9.12,9.12,0,0,0,.83.41l.18.07.56.2.32.09.23.06c.17,0,.34.08.54.11l.38,0h.12a2.63,2.63,0,0,0,.39.06h.46a.87.87,0,0,1,.76.27h.17a1.62,1.62,0,0,1,1-.48l.28-.07c.23-.06.46-.14.69-.22a5.55,5.55,0,0,0,.56-.24l.17-.08a4.82,4.82,0,0,0,.5-.27l.17-.1.22-.14.22-.16.31-.23.2-.16.39-.34.17-.16.17-.18.13-.15a3.88,3.88,0,0,0,.26-.31l.32-.42c0-.08.11-.15.15-.23a6.16,6.16,0,0,0,.33-.55l.15-.29a3.52,3.52,0,0,0,.17-.38.09.09,0,0,0,0-.07s0,0,0,0a1.48,1.48,0,0,0,.12-.29,7.41,7.41,0,0,0,.25-.8c0-.12.06-.23.08-.35s0-.22.06-.32l0-.14a1.33,1.33,0,0,1,.22-.69V235a11.56,11.56,0,0,0-.9-3.39,30.85,30.85,0,0,1,22.85,57A29.86,29.86,0,0,1,118.2,291a31.08,31.08,0,0,1-13.7.54" transform="translate(-67.23 -228.37)"/><path class="cls-2" d="M103.17,288a22.63,22.63,0,0,1,5.18-21.44,36.24,36.24,0,0,0-11.28-8.1" transform="translate(-67.23 -228.37)"/><path class="cls-2" d="M80.05,255.06h0" transform="translate(-67.23 -228.37)"/><path class="cls-2" d="M97.08,258.41A36.19,36.19,0,0,0,82,255.12c-.62,0-1.23,0-1.83,0" transform="translate(-67.23 -228.37)"/><path class="cls-2" d="M103.2,288a22.63,22.63,0,0,1,5.18-21.44A36.14,36.14,0,0,1,118.24,291v.37a36.42,36.42,0,0,1-1.84,11.43,22.7,22.7,0,0,1-11.87-11.26" transform="translate(-67.23 -228.37)"/><path class="cls-2" d="M136.17,301.46a22.6,22.6,0,1,1,4.51-35.8,30.85,30.85,0,0,1-16.23,22.87A24.73,24.73,0,0,1,136.17,301.46Z" transform="translate(-67.23 -228.37)"/><path class="cls-2" d="M103.17,288a24.63,24.63,0,0,1,10-2.13,25,25,0,0,1,4.65.44,24.46,24.46,0,0,1,6.6,2.27,24.75,24.75,0,0,1,11.73,12.93,22.59,22.59,0,0,1-30.84-8.37c-.3-.51-.57-1-.82-1.58" transform="translate(-67.23 -228.37)"/><circle class="cls-2" cx="45.98" cy="15.2" r="3.28"/><ellipse class="cls-3" cx="23.77" cy="19.09" rx="1.72" ry="0.34"/><line class="cls-3" x1="3.77" y1="21.83" x2="29.91" y2="21.83"/><path class="cls-2" d="M97.13,258.41V242.54s-.5.16-.74.22l-.27.08a8,8,0,0,1-1,.16H95a2.87,2.87,0,0,0-.76.33h-.46l-.39-.33h-.12l-.38-.06-.54-.11-.23-.06-.17-.05-.71-.24-.18-.07a9.23,9.23,0,0,1-.83-.42l-.16-.1a3.48,3.48,0,0,1-.51-.34l-.15-.11a1.56,1.56,0,0,1-.2-.16l-.18-.14,0,0-.28-.25c-.2-.19-.4-.4-.59-.61l-1.23.72-2.72,1.58L71.21,250l.19.11L79.92,255l.22.12" transform="translate(-67.23 -228.37)"/><path class="cls-4" d="M272.5,247.5l-9,50A48.48,48.48,0,0,0,288,295c3.59-1.4,8.13-3.23,12-7.8a25.81,25.81,0,0,0,5-10.2c.84-3,2.45-9.12,0-16a24.81,24.81,0,0,0-4-7C295.26,247.26,284.13,245,272.5,247.5Z" transform="translate(-67.23 -228.37)"/></svg>